<?xml version="1.0" standalone="no"?>
<!DOCTYPE svg PUBLIC "-//W3C//DTD SVG 20010904//EN"
 "http://www.w3.org/TR/2001/REC-SVG-20010904/DTD/svg10.dtd">
<svg version="1.0" xmlns="http://www.w3.org/2000/svg"
 width="512.000000pt" height="512.000000pt" viewBox="0 0 512.000000 512.000000"
 preserveAspectRatio="xMidYMid meet">

<g transform="translate(0.000000,512.000000) scale(0.100000,-0.100000)"
fill="#000000" stroke="none">
<path d="M554 3658 c-176 -316 -276 -689 -278 -1033 -1 -126 1 -144 21 -181
94 -176 341 -194 450 -31 38 56 53 121 53 225 0 216 86 534 203 755 17 33 26
61 21 66 -21 19 -394 282 -406 286 -8 3 -31 -28 -64 -87z"/>
<path d="M2305 2508 c28 -127 141 -212 273 -206 l63 3 -165 118 c-91 64 -168
117 -171 117 -4 0 -3 -15 0 -32z"/>
<path d="M1169 1550 c-231 -7 -272 -10 -310 -27 -65 -29 -105 -67 -135 -129
l-27 -56 6 -316 c5 -248 10 -327 22 -363 61 -180 299 -234 434 -98 19 18 44
55 55 81 l21 46 95 -60 c267 -169 578 -284 900 -335 142 -22 489 -24 625 -4
444 64 845 242 1176 519 92 77 261 248 279 282 7 13 -26 41 -172 146 -100 71
-194 138 -210 148 l-30 19 -86 -85 c-159 -155 -284 -245 -468 -336 -267 -133
-523 -188 -834 -179 -198 5 -326 27 -499 83 -105 34 -351 147 -351 162 0 4 16
17 34 29 66 43 116 134 116 212 0 56 -26 132 -59 171 -16 20 -53 49 -82 64
-64 35 -110 38 -500 26z"/>
</g>
</svg>
