<?xml version="1.0" standalone="no"?>
<!DOCTYPE svg PUBLIC "-//W3C//DTD SVG 20010904//EN"
 "http://www.w3.org/TR/2001/REC-SVG-20010904/DTD/svg10.dtd">
<svg version="1.0" xmlns="http://www.w3.org/2000/svg"
 width="50" height="50" viewBox="0 0 512.000000 512.000000"
 preserveAspectRatio="xMidYMid meet">

<g transform="translate(0.000000,512.000000) scale(0.100000,-0.100000)"
fill="#7986AC" stroke="none">
<path d="M4076 4764 c-106 -34 -187 -161 -172 -271 9 -67 31 -105 113 -196
236 -259 437 -685 523 -1105 190 -936 -21 -1913 -536 -2483 -100 -110 -121
-178 -89 -285 31 -104 127 -174 241 -174 81 0 125 20 197 88 233 222 486 671
610 1082 203 669 208 1442 16 2121 -122 433 -363 877 -619 1139 -83 85 -186
115 -284 84z"/>
<path d="M3250 4157 c-49 -16 -133 -102 -148 -153 -17 -60 -15 -143 7 -189 10
-22 46 -71 81 -110 163 -184 286 -447 345 -740 125 -619 -14 -1278 -349 -1653
-70 -79 -87 -111 -93 -182 -10 -108 42 -200 140 -252 58 -31 165 -31 222 -1
104 55 279 287 395 525 106 217 173 439 217 718 28 181 26 617 -5 805 -44 278
-115 503 -228 726 -133 261 -297 467 -407 508 -36 14 -131 12 -177 -2z"/>
<path d="M1977 4100 c-104 -27 -145 -57 -382 -289 -211 -207 -434 -419 -608
-579 -80 -73 -148 -114 -237 -144 -54 -17 -100 -22 -270 -27 -202 -6 -206 -7
-270 -37 -79 -38 -145 -101 -179 -174 -26 -55 -26 -55 -29 -363 -3 -262 -1
-316 13 -364 30 -102 94 -175 195 -222 51 -24 69 -26 250 -32 177 -5 202 -8
275 -33 44 -15 108 -46 142 -69 71 -48 585 -538 767 -731 147 -157 215 -209
308 -237 89 -27 214 -23 300 10 210 81 420 329 482 566 63 244 101 833 85
1320 -11 324 -46 663 -85 820 -58 231 -285 493 -493 568 -63 23 -204 32 -264
17z"/>
</g>
</svg>
